# xmcd
# 
# Track frame offsets:
#     150
#     19687
#     36017
#     52379
#     67665
#     85329
#     102184
#     117102
#     134067
#     150703
#     166831
#     179835
# 
# Disc length: 2591
# 
# Revision: 1
# Processed by: cddbd v1.5.2PL0 Copyright (c) Steve Scherf et al.
# Submitted via: BonkEnc v1.0rc1
# 
DISCID=a00a1d0c
DTITLE=Peter Fox - Stadtaffe
DYEAR=2008
DGENRE=Hip-Hop
TTITLE0=Alles Neu
TTITLE1=Schwarz Zu Blau
TTITLE2=Haus Am See
TTITLE3=Kopf Verloren
TTITLE4=Das Zweite Gesicht
TTITLE5=Der Letzte Tag
TTITLE6=Ich Deine Steine, Du Steine
TTITLE7=Lok Auf 2 Beinen
TTITLE8=Stadtaffe
TTITLE9=Fieber
TTITLE10=Schüttel Deinen Speck
TTITLE11=Zucker (Feat. Vanessa Mason)
EXTD=
EXTT0=
EXTT1=
EXTT2=
EXTT3=
EXTT4=
EXTT5=
EXTT6=
EXTT7=
EXTT8=
EXTT9=
EXTT10=
EXTT11=
PLAYORDER=
